<!-- <svg xmlns="http://www.w3.org/2000/svg" width="30" height="24" fill="currentColor" class="bi bi-list" viewBox="0 0 16 16"> <path fill-rule="evenodd" d="M2.5 12a.5.5 0 0 1 .5-.5h10a.5.5 0 0 1 0 1H3a.5.5 0 0 1-.5-.5zm0-4a.5.5 0 0 1 .5-.5h10a.5.5 0 0 1 0 1H3a.5.5 0 0 1-.5-.5zm0-4a.5.5 0 0 1 .5-.5h10a.5.5 0 0 1 0 1H3a.5.5 0 0 1-.5-.5z"/> </svg> -->

<!-- <svg xmlns="http://www.w3.org/2000/svg" width="30" height="24" viewBox="0 0 24 24"> <g> <path fill="none" d="M0 0h24v24H0z"/> <path d="M20 22H4a1 1 0 0 1-1-1V3a1 1 0 0 1 1-1h16a1 1 0 0 1 1 1v18a1 1 0 0 1-1 1zM8 7v2h8V7H8zm0 4v2h8v-2H8zm0 4v2h8v-2H8z"/> </g> </svg> -->

<svg xmlns="http://www.w3.org/2000/svg" width="30" height="24" viewBox="0 0 256 256"><rect width="256" height="256" fill="none"/><line x1="40" y1="128" x2="216" y2="128" fill="none" stroke="#000" stroke-linecap="round" stroke-linejoin="round" stroke-width="24"/><line x1="40" y1="64" x2="216" y2="64" fill="none" stroke="#000" stroke-linecap="round" stroke-linejoin="round" stroke-width="24"/><line x1="40" y1="192" x2="216" y2="192" fill="none" stroke="#000" stroke-linecap="round" stroke-linejoin="round" stroke-width="24"/></svg>
